<mxfile host="Electron" agent="Mozilla/5.0 (Windows NT 10.0; Win64; x64) AppleWebKit/537.36 (KHTML, like Gecko) draw.io/28.0.6 Chrome/138.0.7204.100 Electron/37.2.3 Safari/537.36" version="28.0.6">
  <diagram name="Page-1" id="nRrL5sIF_Iv1J4ugvocm">
    <mxGraphModel dx="464" dy="825" grid="1" gridSize="10" guides="1" tooltips="1" connect="1" arrows="1" fold="1" page="1" pageScale="1" pageWidth="827" pageHeight="1169" math="0" shadow="0">
      <root>
        <mxCell id="0" />
        <mxCell id="1" parent="0" />
        <mxCell id="zNhVQzOyXZVfNm3xUkm4-20" value="" style="rounded=0;whiteSpace=wrap;html=1;" vertex="1" parent="1">
          <mxGeometry x="150" y="30" width="230" height="770" as="geometry" />
        </mxCell>
        <mxCell id="zNhVQzOyXZVfNm3xUkm4-22" style="rounded=0;orthogonalLoop=1;jettySize=auto;html=1;exitX=0.75;exitY=0.1;exitDx=0;exitDy=0;exitPerimeter=0;dashed=1;startArrow=classic;startFill=1;" edge="1" parent="1" source="zNhVQzOyXZVfNm3xUkm4-1" target="zNhVQzOyXZVfNm3xUkm4-10">
          <mxGeometry relative="1" as="geometry" />
        </mxCell>
        <mxCell id="zNhVQzOyXZVfNm3xUkm4-1" value="Patient" style="shape=umlActor;verticalLabelPosition=bottom;verticalAlign=top;html=1;outlineConnect=0;" vertex="1" parent="1">
          <mxGeometry x="40" y="70" width="30" height="60" as="geometry" />
        </mxCell>
        <mxCell id="zNhVQzOyXZVfNm3xUkm4-2" value="Nurse" style="shape=umlActor;verticalLabelPosition=bottom;verticalAlign=top;html=1;outlineConnect=0;" vertex="1" parent="1">
          <mxGeometry x="60" y="240" width="30" height="60" as="geometry" />
        </mxCell>
        <mxCell id="zNhVQzOyXZVfNm3xUkm4-3" value="Doctor" style="shape=umlActor;verticalLabelPosition=bottom;verticalAlign=top;html=1;outlineConnect=0;" vertex="1" parent="1">
          <mxGeometry x="60" y="400" width="30" height="60" as="geometry" />
        </mxCell>
        <mxCell id="zNhVQzOyXZVfNm3xUkm4-4" value="Admin" style="shape=umlActor;verticalLabelPosition=bottom;verticalAlign=top;html=1;outlineConnect=0;" vertex="1" parent="1">
          <mxGeometry x="60" y="540" width="30" height="60" as="geometry" />
        </mxCell>
        <mxCell id="zNhVQzOyXZVfNm3xUkm4-9" value="Pharmacist" style="shape=umlActor;verticalLabelPosition=bottom;verticalAlign=top;html=1;outlineConnect=0;" vertex="1" parent="1">
          <mxGeometry x="60" y="725" width="30" height="60" as="geometry" />
        </mxCell>
        <mxCell id="zNhVQzOyXZVfNm3xUkm4-10" value="Register&amp;nbsp;&lt;div&gt;Patient&lt;/div&gt;" style="ellipse;whiteSpace=wrap;html=1;" vertex="1" parent="1">
          <mxGeometry x="190" y="60" width="140" height="70" as="geometry" />
        </mxCell>
        <mxCell id="zNhVQzOyXZVfNm3xUkm4-11" value="View&amp;nbsp;&lt;div&gt;Medical History&lt;/div&gt;" style="ellipse;whiteSpace=wrap;html=1;" vertex="1" parent="1">
          <mxGeometry x="190" y="140" width="140" height="70" as="geometry" />
        </mxCell>
        <mxCell id="zNhVQzOyXZVfNm3xUkm4-12" value="Schedule&amp;nbsp;&lt;div&gt;Appointment&lt;/div&gt;" style="ellipse;whiteSpace=wrap;html=1;" vertex="1" parent="1">
          <mxGeometry x="190" y="220" width="140" height="70" as="geometry" />
        </mxCell>
        <mxCell id="zNhVQzOyXZVfNm3xUkm4-13" value="Manage&amp;nbsp;&lt;div&gt;Patient&amp;nbsp;&lt;span style=&quot;background-color: transparent; color: light-dark(rgb(0, 0, 0), rgb(255, 255, 255));&quot;&gt;Records&lt;/span&gt;&lt;/div&gt;" style="ellipse;whiteSpace=wrap;html=1;" vertex="1" parent="1">
          <mxGeometry x="190" y="300" width="140" height="70" as="geometry" />
        </mxCell>
        <mxCell id="zNhVQzOyXZVfNm3xUkm4-14" value="Prescribe&lt;div&gt;&amp;nbsp;Medication&lt;/div&gt;" style="ellipse;whiteSpace=wrap;html=1;" vertex="1" parent="1">
          <mxGeometry x="190" y="380" width="140" height="70" as="geometry" />
        </mxCell>
        <mxCell id="zNhVQzOyXZVfNm3xUkm4-15" value="Diagnose&lt;div&gt;&amp;nbsp;Patient&lt;/div&gt;" style="ellipse;whiteSpace=wrap;html=1;" vertex="1" parent="1">
          <mxGeometry x="190" y="460" width="140" height="70" as="geometry" />
        </mxCell>
        <mxCell id="zNhVQzOyXZVfNm3xUkm4-16" value="Manage Staff" style="ellipse;whiteSpace=wrap;html=1;" vertex="1" parent="1">
          <mxGeometry x="190" y="540" width="140" height="70" as="geometry" />
        </mxCell>
        <mxCell id="zNhVQzOyXZVfNm3xUkm4-17" value="View&amp;nbsp;&lt;div&gt;Reports&lt;/div&gt;" style="ellipse;whiteSpace=wrap;html=1;" vertex="1" parent="1">
          <mxGeometry x="190" y="620" width="140" height="70" as="geometry" />
        </mxCell>
        <mxCell id="zNhVQzOyXZVfNm3xUkm4-18" value="Dispense&lt;div&gt;Medication&lt;/div&gt;" style="ellipse;whiteSpace=wrap;html=1;" vertex="1" parent="1">
          <mxGeometry x="190" y="720" width="140" height="70" as="geometry" />
        </mxCell>
        <mxCell id="zNhVQzOyXZVfNm3xUkm4-21" value="Patient Care Portal" style="text;html=1;align=center;verticalAlign=middle;resizable=0;points=[];autosize=1;strokeColor=none;fillColor=none;" vertex="1" parent="1">
          <mxGeometry x="200" y="30" width="120" height="30" as="geometry" />
        </mxCell>
        <mxCell id="zNhVQzOyXZVfNm3xUkm4-24" style="rounded=0;orthogonalLoop=1;jettySize=auto;html=1;exitX=1;exitY=0.3333333333333333;exitDx=0;exitDy=0;exitPerimeter=0;dashed=1;startArrow=classic;startFill=1;entryX=0;entryY=0.5;entryDx=0;entryDy=0;" edge="1" parent="1" source="zNhVQzOyXZVfNm3xUkm4-1" target="zNhVQzOyXZVfNm3xUkm4-11">
          <mxGeometry relative="1" as="geometry">
            <mxPoint x="110" y="140" as="sourcePoint" />
            <mxPoint x="230" y="143" as="targetPoint" />
          </mxGeometry>
        </mxCell>
        <mxCell id="zNhVQzOyXZVfNm3xUkm4-25" style="rounded=0;orthogonalLoop=1;jettySize=auto;html=1;exitX=1;exitY=1;exitDx=0;exitDy=0;exitPerimeter=0;dashed=1;startArrow=classic;startFill=1;entryX=0;entryY=0;entryDx=0;entryDy=0;" edge="1" parent="1" source="zNhVQzOyXZVfNm3xUkm4-1" target="zNhVQzOyXZVfNm3xUkm4-12">
          <mxGeometry relative="1" as="geometry">
            <mxPoint x="50" y="180" as="sourcePoint" />
            <mxPoint x="185" y="255" as="targetPoint" />
          </mxGeometry>
        </mxCell>
        <mxCell id="zNhVQzOyXZVfNm3xUkm4-27" style="rounded=0;orthogonalLoop=1;jettySize=auto;html=1;exitX=1;exitY=0.3333333333333333;exitDx=0;exitDy=0;exitPerimeter=0;dashed=1;startArrow=classic;startFill=1;entryX=0;entryY=0.5;entryDx=0;entryDy=0;" edge="1" parent="1" source="zNhVQzOyXZVfNm3xUkm4-2" target="zNhVQzOyXZVfNm3xUkm4-12">
          <mxGeometry relative="1" as="geometry">
            <mxPoint x="110" y="210" as="sourcePoint" />
            <mxPoint x="251" y="310" as="targetPoint" />
          </mxGeometry>
        </mxCell>
        <mxCell id="zNhVQzOyXZVfNm3xUkm4-28" style="rounded=0;orthogonalLoop=1;jettySize=auto;html=1;exitX=1;exitY=1;exitDx=0;exitDy=0;exitPerimeter=0;dashed=1;startArrow=classic;startFill=1;entryX=0.107;entryY=0.157;entryDx=0;entryDy=0;entryPerimeter=0;" edge="1" parent="1" source="zNhVQzOyXZVfNm3xUkm4-2" target="zNhVQzOyXZVfNm3xUkm4-13">
          <mxGeometry relative="1" as="geometry">
            <mxPoint x="100" y="290" as="sourcePoint" />
            <mxPoint x="241" y="390" as="targetPoint" />
          </mxGeometry>
        </mxCell>
        <mxCell id="zNhVQzOyXZVfNm3xUkm4-29" style="rounded=0;orthogonalLoop=1;jettySize=auto;html=1;exitX=0.75;exitY=0.1;exitDx=0;exitDy=0;exitPerimeter=0;dashed=1;startArrow=classic;startFill=1;entryX=0;entryY=0.5;entryDx=0;entryDy=0;" edge="1" parent="1" source="zNhVQzOyXZVfNm3xUkm4-3" target="zNhVQzOyXZVfNm3xUkm4-13">
          <mxGeometry relative="1" as="geometry">
            <mxPoint x="100" y="340" as="sourcePoint" />
            <mxPoint x="215" y="351" as="targetPoint" />
          </mxGeometry>
        </mxCell>
        <mxCell id="zNhVQzOyXZVfNm3xUkm4-30" style="rounded=0;orthogonalLoop=1;jettySize=auto;html=1;exitX=1;exitY=0.3333333333333333;exitDx=0;exitDy=0;exitPerimeter=0;dashed=1;startArrow=classic;startFill=1;entryX=0;entryY=0.5;entryDx=0;entryDy=0;" edge="1" parent="1" source="zNhVQzOyXZVfNm3xUkm4-3" target="zNhVQzOyXZVfNm3xUkm4-14">
          <mxGeometry relative="1" as="geometry">
            <mxPoint x="120" y="471" as="sourcePoint" />
            <mxPoint x="227" y="400" as="targetPoint" />
          </mxGeometry>
        </mxCell>
        <mxCell id="zNhVQzOyXZVfNm3xUkm4-31" style="rounded=0;orthogonalLoop=1;jettySize=auto;html=1;dashed=1;startArrow=classic;startFill=1;entryX=0;entryY=0.5;entryDx=0;entryDy=0;exitX=1;exitY=1;exitDx=0;exitDy=0;exitPerimeter=0;" edge="1" parent="1" source="zNhVQzOyXZVfNm3xUkm4-3" target="zNhVQzOyXZVfNm3xUkm4-15">
          <mxGeometry relative="1" as="geometry">
            <mxPoint x="90" y="470" as="sourcePoint" />
            <mxPoint x="217" y="450" as="targetPoint" />
          </mxGeometry>
        </mxCell>
        <mxCell id="zNhVQzOyXZVfNm3xUkm4-32" style="rounded=0;orthogonalLoop=1;jettySize=auto;html=1;dashed=1;startArrow=classic;startFill=1;entryX=0;entryY=0.5;entryDx=0;entryDy=0;exitX=1;exitY=0.3333333333333333;exitDx=0;exitDy=0;exitPerimeter=0;" edge="1" parent="1" source="zNhVQzOyXZVfNm3xUkm4-4" target="zNhVQzOyXZVfNm3xUkm4-16">
          <mxGeometry relative="1" as="geometry">
            <mxPoint x="100" y="520" as="sourcePoint" />
            <mxPoint x="200" y="555" as="targetPoint" />
          </mxGeometry>
        </mxCell>
        <mxCell id="zNhVQzOyXZVfNm3xUkm4-33" style="rounded=0;orthogonalLoop=1;jettySize=auto;html=1;dashed=1;startArrow=classic;startFill=1;entryX=0;entryY=0.5;entryDx=0;entryDy=0;exitX=1;exitY=1;exitDx=0;exitDy=0;exitPerimeter=0;" edge="1" parent="1" source="zNhVQzOyXZVfNm3xUkm4-4" target="zNhVQzOyXZVfNm3xUkm4-17">
          <mxGeometry relative="1" as="geometry">
            <mxPoint x="110" y="640" as="sourcePoint" />
            <mxPoint x="210" y="675" as="targetPoint" />
          </mxGeometry>
        </mxCell>
        <mxCell id="zNhVQzOyXZVfNm3xUkm4-34" style="rounded=0;orthogonalLoop=1;jettySize=auto;html=1;dashed=1;startArrow=classic;startFill=1;entryX=0;entryY=0.5;entryDx=0;entryDy=0;exitX=1;exitY=0.3333333333333333;exitDx=0;exitDy=0;exitPerimeter=0;" edge="1" parent="1" source="zNhVQzOyXZVfNm3xUkm4-9" target="zNhVQzOyXZVfNm3xUkm4-18">
          <mxGeometry relative="1" as="geometry">
            <mxPoint x="80" y="650" as="sourcePoint" />
            <mxPoint x="180" y="705" as="targetPoint" />
          </mxGeometry>
        </mxCell>
      </root>
    </mxGraphModel>
  </diagram>
</mxfile>
